<?xml version="1.0" encoding="UTF-8"?>
<svg width="161px" height="30px" viewBox="0 0 161 30" version="1.1" xmlns="http://www.w3.org/2000/svg" xmlns:xlink="http://www.w3.org/1999/xlink">
    <!-- Generator: sketchtool 59.1 (101010) - https://sketch.com -->
    <title>CDAA02FF-A2F9-45A5-AF2E-5341FA1B49FB</title>
    <desc>Created with sketchtool.</desc>
    <g id="Symbols" stroke="none" stroke-width="1" fill="none" fill-rule="evenodd">
        <g id="Comp/desktop/navigation" transform="translate(-40.000000, -35.000000)">
            <g id="logos/BCVs_Positif" transform="translate(40.000000, 35.000000)">
                <path d="M68.204681,5.33156257 L68.1760931,5.33156257 C67.7113092,4.4948438 67.0007617,3.99000004 65.8978222,3.99000004 C63.5623755,3.99000004 62.7208769,5.97890633 62.7208769,8.22140638 C62.7208769,10.4479689 63.5623755,12.4987502 65.8978222,12.4987502 C66.7250268,12.4987502 67.4069864,12.2789065 68.0889461,11.3779689 L68.1179951,11.3779689 L68.1179951,15.6253128 L70.0615109,15.6253128 L70.0615109,4.17937504 L68.204681,4.17937504 L68.204681,5.33156257 Z M66.3911934,10.8571874 C65.1148821,10.8571874 64.7520003,9.34218739 64.7520003,8.22140617 C64.7520003,7.13203119 65.1001271,5.63156247 66.3621444,5.63156247 C67.6094067,5.63156247 68.1032395,7.08421869 68.1032395,8.22140617 C68.1032395,9.37312489 67.6822597,10.8571874 66.3911934,10.8571874 L66.3911934,10.8571874 Z M83.9160348,3.99000004 C81.594882,3.99000004 80.4485996,5.93156259 80.4485996,8.28375014 C80.4485996,10.952344 81.8844498,12.4987502 84.3503864,12.4987502 C85.395689,12.4987502 86.2076775,12.2789065 86.9182251,11.852344 L86.9182251,10.1320314 C86.1929225,10.5735939 85.3804729,10.952344 84.4379945,10.952344 C83.2336141,10.952344 82.3921155,10.2107814 82.3058907,8.89968765 L87.4696948,8.89968765 C87.4696948,6.05812509 86.6862942,3.99000004 83.9160348,3.99000004 L83.9160348,3.99000004 Z M82.3058906,7.44796894 C82.3921154,6.35812516 82.9435851,5.53687513 84.0317696,5.53687513 C85.119954,5.53687513 85.5543056,6.42140641 85.6128646,7.44796894 L82.3058906,7.44796894 Z M52.421395,8.45859389 L52.421395,7.41562512 C52.421395,5.01609381 51.4784555,3.99000004 49.2001846,3.99000004 C48.3734411,3.99000004 47.3581097,4.22625004 46.6037581,4.60593755 L46.661395,6.42140635 C47.3143056,5.88515633 48.1410491,5.53687508 48.9677927,5.53687508 C50.1145362,5.53687508 50.6507898,5.97890634 50.6507898,7.29046887 L49.5778215,7.29046887 C48.7653719,7.29046887 47.8076774,7.36921887 47.0676197,7.76296888 C46.3280232,8.15765639 45.7913085,8.86781265 45.7913085,10.0846877 C45.7913085,11.6306252 47.0823748,12.4987502 48.4024901,12.4987502 C49.2868705,12.4987502 50.2593201,11.9943752 50.7093489,11.0934377 L50.7383979,11.0934377 C50.7522307,11.3475002 50.7522307,11.8837502 50.8250837,12.3103127 L52.5371299,12.3103127 C52.4933258,11.6784377 52.4642768,11.1107815 52.4499829,10.4948439 C52.4352278,9.89390643 52.421395,9.27890641 52.421395,8.45859389 L52.421395,8.45859389 Z M50.2445645,10.2257809 C49.9407029,10.6687497 49.475919,10.9523434 48.8811063,10.9523434 C48.1853138,10.9523434 47.6476769,10.6523434 47.6476769,9.95718721 C47.6476769,8.71031225 48.9392043,8.55187476 49.8097519,8.55187476 L50.6507893,8.55187476 C50.6507893,9.18374973 50.5636424,9.76781221 50.2445645,10.2257809 L50.2445645,10.2257809 Z M42.3676774,6.61031254 L42.3676774,6.57890629 C43.5715967,6.34218754 44.3835852,5.42625003 44.3835852,4.11609377 C44.3835852,1.70062499 42.4253142,1.28999999 41.1194929,1.28999999 L37.5801268,1.28999999 L37.5801268,12.3103126 L41.1194929,12.3103126 C42.3962653,12.3103126 44.6883691,11.9001563 44.6883691,9.12140631 C44.6883691,7.7629688 43.7458906,6.75281254 42.3676774,6.61031254 L42.3676774,6.61031254 Z M39.6112507,3.02671865 L40.3946513,3.02671865 C41.3228357,3.02671865 42.3529222,3.1218749 42.3529222,4.4010937 C42.3529222,5.53687499 41.2937867,5.7421875 40.4379942,5.7421875 L39.6112507,5.7421875 L39.6112507,3.02671865 Z M40.5684841,10.5735936 L39.6112507,10.5735936 L39.6112507,7.38374993 L40.5684841,7.38374993 C41.5842766,7.38374993 42.6572449,7.60546868 42.6572449,9.04265614 C42.6572449,10.3209374 41.5109625,10.5735936 40.5684841,10.5735936 L40.5684841,10.5735936 Z M76.9811654,8.15765602 C76.9811654,9.20015597 76.6763816,10.8571871 75.2691194,10.8571871 C74.0218572,10.8571871 74.006641,9.51609345 74.006641,8.52093725 L74.006641,4.17937495 L72.0635863,4.17937495 L72.0635863,9.30984346 C72.0635863,11.1421871 72.8322318,12.4987496 74.6023759,12.4987496 C75.6177073,12.4987496 76.4587447,11.9943746 77.0535574,11.2040621 L77.0826063,11.2040621 L77.0826063,12.3103121 L78.9251423,12.3103121 L78.9251423,4.17937495 L76.9811654,4.17937495 L76.9811654,8.15765602 Z M58.6590895,3.99000004 C57.6437581,3.99000004 56.8165535,4.35328129 56.2069858,5.28328129 L56.1779368,5.28328129 L56.1779368,4.17937504 L54.3358619,4.17937504 L54.3358619,12.3103125 L56.2793777,12.3103125 L56.2793777,8.33109379 C56.2793777,7.29046879 56.5846227,5.63156254 57.9914238,5.63156254 C59.2396083,5.63156254 59.2534411,6.97453129 59.2534411,7.96781254 L59.2534411,12.3103125 L61.1978791,12.3103125 L61.1978791,7.17890629 C61.1978791,5.34750004 60.4287725,3.99000004 58.6590895,3.99000004 L58.6590895,3.99000004 Z M107.894826,8.45671889 L107.894826,7.41468762 C107.894826,5.01515631 106.951887,3.99000004 104.673155,3.99000004 C103.846411,3.99000004 102.832002,4.22625004 102.077651,4.60500005 L102.135287,6.42046885 C102.787276,5.88328133 103.614019,5.53546883 104.441224,5.53546883 C105.587967,5.53546883 106.125143,5.97890634 106.125143,7.28859387 L105.050792,7.28859387 C104.238803,7.28859387 103.282031,7.36734387 102.541512,7.76296888 C101.801455,8.15671889 101.26474,8.86781265 101.26474,10.0837502 C101.26474,11.6306252 102.556267,12.4987502 103.876382,12.4987502 C104.761224,12.4987502 105.732751,11.9934377 106.18278,11.0934377 L106.211829,11.0934377 C106.225662,11.3456252 106.225662,11.8832815 106.298976,12.3093752 L108.011022,12.3093752 C107.967218,11.6784377 107.938169,11.1089065 107.923414,10.4939064 C107.90912,9.89390643 107.894826,9.27750016 107.894826,8.45671889 L107.894826,8.45671889 Z M105.717996,10.2253123 C105.414135,10.6678123 104.949812,10.9509373 104.354999,10.9509373 C103.658746,10.9509373 103.122031,10.651406 103.122031,9.95718727 C103.122031,8.71031226 104.413558,8.55187476 105.283184,8.55187476 L106.125143,8.55187476 C106.125143,9.18374976 106.037535,9.76781226 105.717996,10.2253123 L105.717996,10.2253123 Z M149.718457,12.3093751 L151.663356,12.3093751 L151.663356,0.46875 L149.718457,0.46875 L149.718457,12.3093751 Z M147.832574,8.45671889 L147.832574,7.41468762 C147.832574,5.01515631 146.889634,3.99000004 144.611825,3.99000004 C143.78462,3.99000004 142.768828,4.22625004 142.014937,4.60500005 L142.073496,6.42046885 C142.726407,5.88328133 143.55315,5.53546883 144.380355,5.53546883 C145.525715,5.53546883 146.062891,5.97890634 146.062891,7.28859387 L144.988539,7.28859387 C144.176551,7.28859387 143.218856,7.36734387 142.47926,7.76296888 C141.739663,8.15671889 141.202488,8.86781265 141.202488,10.0837502 C141.202488,11.6306252 142.494015,12.4987502 143.81413,12.4987502 C144.698972,12.4987502 145.670499,11.9934377 146.120067,11.0934377 L146.150038,11.0934377 C146.164332,11.3456252 146.164332,11.8832815 146.236724,12.3093752 L147.94877,12.3093752 C147.904966,11.6784377 147.876378,11.1089065 147.861162,10.4939064 C147.846407,9.89390643 147.832574,9.27750016 147.832574,8.45671889 L147.832574,8.45671889 Z M145.656666,10.2253123 C145.351882,10.6678123 144.88756,10.9509373 144.292747,10.9509373 C143.596032,10.9509373 143.059779,10.651406 143.059779,9.95718727 C143.059779,8.71031226 144.350384,8.55187476 145.220931,8.55187476 L146.062891,8.55187476 C146.062891,9.18374976 145.975744,9.76781226 145.656666,10.2253123 L145.656666,10.2253123 Z M155.013674,8.89875015 L160.177478,8.89875015 C160.177478,6.05812509 159.394077,3.99000004 156.623818,3.99000004 C154.302665,3.99000004 153.156844,5.93062509 153.156844,8.28375014 C153.156844,10.9509377 154.592694,12.4987502 157.058631,12.4987502 C158.103472,12.4987502 158.915922,12.2770315 159.626469,11.8509377 L159.626469,10.1301564 C158.900705,10.5726564 158.088717,10.9509377 157.145777,10.9509377 C155.941858,10.9509377 155.10036,10.2089064 155.013674,8.89875015 L155.013674,8.89875015 Z M156.739549,5.53546876 C157.828195,5.53546876 158.262546,6.4204688 158.321106,7.44609386 L155.01367,7.44609386 C155.100356,6.35718755 155.651826,5.53546876 156.739549,5.53546876 L156.739549,5.53546876 Z M137.213096,3.99000004 C136.197303,3.99000004 135.37056,4.35234377 134.761914,5.28328123 L134.732865,5.28328123 L134.732865,4.17843753 L132.890329,4.17843753 L132.890329,12.3093747 L134.834306,12.3093747 L134.834306,8.33015609 C134.834306,7.28859364 135.139551,5.63156246 136.545891,5.63156246 C137.793615,5.63156246 137.808831,6.97265615 137.808831,7.96781236 L137.808831,12.3093747 L139.751885,12.3093747 L139.751885,7.17843739 C139.751885,5.34656248 138.982779,3.99000004 137.213096,3.99000004 L137.213096,3.99000004 Z M98.1887708,10.761094 C96.027618,10.761094 94.7508456,9.07265649 94.7508456,6.83062517 C94.7508456,4.57406259 96.0575892,2.83640629 98.1458889,2.83640629 C98.8702693,2.83640629 99.566984,2.94703129 100.336552,3.42046881 L100.481336,1.55718749 C99.7417391,1.24124998 98.8564365,1.09968748 98.1887708,1.09968748 C94.7508456,1.09968748 92.6325747,3.2151563 92.6325747,6.98906267 C92.6325747,10.714219 94.9108456,12.4987504 98.1887708,12.4987504 C98.9578774,12.4987504 99.756033,12.3412503 100.496552,12.1518753 L100.408944,10.3040628 C99.9294048,10.5726565 98.9873875,10.761094 98.1887708,10.761094 L98.1887708,10.761094 Z M114.060129,3.99000004 C113.044798,3.99000004 112.218054,4.35234377 111.608025,5.28328123 L111.579437,5.28328123 L111.579437,4.17843753 L109.737362,4.17843753 L109.737362,12.3093747 L111.680878,12.3093747 L111.680878,8.33015609 C111.680878,7.28859364 111.985662,5.63156246 113.392002,5.63156246 C114.640648,5.63156246 114.654942,6.97265615 114.654942,7.96781236 L114.654942,12.3093747 L116.599841,12.3093747 L116.599841,7.17843739 C116.599841,5.34656248 115.830273,3.99000004 114.060129,3.99000004 L114.060129,3.99000004 Z M122.025085,10.8571872 C121.284566,10.8571872 121.111195,10.208906 121.111195,9.51421853 L121.111195,5.7253124 L122.837074,5.7253124 L122.837074,4.17843745 L121.111195,4.17843745 L121.111195,1.87312502 L119.167218,2.55234375 L119.167218,4.17843745 L117.730906,4.17843745 L117.730906,5.7253124 L119.167218,5.7253124 L119.167218,9.86203102 C119.167218,11.472656 120.008255,12.4987497 121.531252,12.4987497 C122.111771,12.4987497 122.561339,12.4349997 122.967564,12.3093747 L122.909927,10.6354685 C122.707045,10.7784372 122.372751,10.8571872 122.025085,10.8571872 L122.025085,10.8571872 Z M127.52272,3.99000004 C125.318224,3.99000004 123.61955,5.61468758 123.61955,8.29875014 C123.61955,10.6354689 125.055861,12.4987502 127.52272,12.4987502 C130.003412,12.4987502 131.438801,10.6354689 131.438801,8.29875014 C131.438801,5.61468758 129.741971,3.99000004 127.52272,3.99000004 L127.52272,3.99000004 Z M44.6897981,17.517516 L44.6897981,29.3581414 L42.8034581,29.3581414 L42.8034581,28.4426727 L42.7748702,28.4426727 C42.1948125,29.2329852 41.3961958,29.5479852 40.4827665,29.5479852 C38.1902017,29.5479852 37.3487032,27.4953289 37.3487032,25.2687663 C37.3487032,23.0281412 38.1902017,21.0387661 40.4827665,21.0387661 C41.4542938,21.0387661 42.1362535,21.4015787 42.7163111,22.1750162 L42.7458212,22.1750162 L42.7458212,17.517516 L44.6897981,17.517516 Z M48.6353892,21.2272507 L48.6353892,25.5697506 C48.6353892,26.5630318 48.6501443,27.9060005 49.8974065,27.9060005 C51.3042076,27.9060005 51.6089914,26.2480318 51.6089914,25.2064693 L51.6089914,21.2272507 L53.5534294,21.2272507 L53.5534294,29.3581879 L51.7108935,29.3581879 L51.7108935,28.2542817 L51.6818445,28.2542817 C51.0874929,29.043188 50.2459944,29.5480317 49.230663,29.5480317 C47.4605189,29.5480317 46.6918734,28.190063 46.6918734,26.3586568 L46.6918734,21.2272507 L48.6353892,21.2272507 Z M69.6571752,21.0390472 C71.934985,21.0390472 72.8783856,22.0642035 72.8783856,24.4642035 L72.8783856,25.505766 C72.8783856,26.327016 72.8922185,26.9429535 72.9069735,27.5429534 C72.9212675,28.1579534 72.9503165,28.7274847 72.9941205,29.3584222 L71.2820744,29.3584222 C71.2096824,28.9313909 71.2096824,28.3951409 71.1949274,28.1434222 L71.1663395,28.1434222 C70.7163107,29.0429534 69.7443222,29.5482659 68.8594807,29.5482659 C67.5398265,29.5482659 66.2482991,28.6796722 66.2482991,27.1327972 C66.2482991,25.9168597 66.7850138,25.2062347 67.5246104,24.8115472 C68.2642069,24.416391 69.2219014,24.337641 70.0348121,24.337641 L71.1077804,24.337641 C71.1077804,23.0284222 70.5710657,22.5849847 69.4247833,22.5849847 C68.5980398,22.5849847 67.7712962,22.9323285 67.1183856,23.469516 L67.0602876,21.6540472 C67.8151003,21.2748285 68.8304317,21.0390472 69.6571752,21.0390472 Z M81.6114352,21.0390472 C83.8883229,21.0390472 84.8312624,22.0642035 84.8312624,24.4642035 L84.8312624,25.505766 C84.8312624,26.327016 84.8450952,26.9429535 84.8603113,27.5429534 C84.8750664,28.1579534 84.9036543,28.7274847 84.9474583,29.3584222 L83.2354122,29.3584222 C83.1630203,28.9313909 83.1630203,28.3951409 83.1491874,28.1434222 L83.1187551,28.1434222 C82.6696485,29.0429534 81.69766,29.5482659 80.8132796,29.5482659 C79.4931643,29.5482659 78.2016369,28.6796722 78.2016369,27.1327972 C78.2016369,25.9168597 78.7388127,25.2062347 79.4784093,24.8115472 C80.2180058,24.416391 81.1752393,24.337641 81.9876888,24.337641 L83.0615793,24.337641 C83.0615793,23.0284222 82.5244035,22.5849847 81.3790433,22.5849847 C80.5518387,22.5849847 79.7250952,22.9323285 79.0721845,23.469516 L79.0140865,21.6540472 C79.7684381,21.2748285 80.7837695,21.0390472 81.6114352,21.0390472 Z M93.085373,21.038813 C93.9997246,21.038813 94.5945372,21.196313 95.2036438,21.3374067 L95.0731539,22.9320942 C94.4783413,22.711313 94.0439897,22.5852192 93.3329811,22.5852192 C92.8105603,22.5852192 92.1862376,22.790063 92.1862376,23.4852192 C92.1862376,24.779438 95.5660646,23.9591255 95.5660646,26.8953755 C95.5660646,28.7900629 94.0144796,29.5480317 92.4333846,29.5480317 C91.6928658,29.5480317 90.9385143,29.4055317 90.2275057,29.2006879 L90.3437016,27.4639692 C90.9532693,27.7953754 91.5914249,28.0006879 92.2586295,28.0006879 C92.7524624,28.0006879 93.5354018,27.7953754 93.5354018,27.0060005 C93.5354018,25.4117817 90.1551137,26.500688 90.1551137,23.564438 C90.1551137,21.811313 91.562837,21.038813 93.085373,21.038813 Z M59.1672616,18.3389068 L61.7641494,26.9896878 L61.7931984,26.9896878 L64.360576,18.3389068 L66.3774061,18.3389068 L62.9676076,29.3582815 L60.4726219,29.3582815 L56.9913538,18.3389068 L59.1672616,18.3389068 Z M76.7082408,17.5177038 L76.7082408,29.3583289 L74.7638027,29.3583289 L74.7638027,17.5177038 L76.7082408,17.5177038 Z M88.6621327,21.2273902 L88.6621327,29.358328 L86.7176946,29.358328 L86.7176946,21.2273902 L88.6621327,21.2273902 Z M71.1077826,25.6018585 L70.266284,25.6018585 C69.3961976,25.6018585 68.1046702,25.7593585 68.1046702,27.0062335 C68.1046702,27.7004523 68.641846,28.0004523 69.3380996,28.0004523 C69.9329123,28.0004523 70.397235,27.7168585 70.7015578,27.2743585 C71.0206356,26.8168585 71.1077826,26.232796 71.1077826,25.6018585 Z M83.0615795,25.6018585 L82.2200809,25.6018585 C81.3495334,25.6018585 80.0584671,25.7593585 80.0584671,27.0062335 C80.0584671,27.7004523 80.5951818,28.0004523 81.2918965,28.0004523 C81.8862481,28.0004523 82.3505709,27.7168585 82.6553547,27.2743585 C82.9744325,26.8168585 83.0615795,26.232796 83.0615795,25.6018585 Z M40.9904324,22.6803285 C39.727954,22.6803285 39.3798272,24.1798597 39.3798272,25.2687659 C39.3798272,26.3900159 39.7422479,27.9059534 41.0190203,27.9059534 C42.3100866,27.9059534 42.7310664,26.4218909 42.7310664,25.2687659 C42.7310664,24.132516 42.2372336,22.6803285 40.9904324,22.6803285 Z M88.6621327,17.7225477 L88.6621327,19.7433288 L86.7176946,19.7433288 L86.7176946,17.7225477 L88.6621327,17.7225477 Z M127.522723,5.63156247 C128.799496,5.63156247 129.408141,6.79968745 129.408141,8.04703117 C129.408141,9.40406239 129.016671,10.8571874 127.522723,10.8571874 C126.042608,10.8571874 125.650216,9.38859364 125.650216,8.04703117 C125.650216,6.83062495 126.260245,5.63156247 127.522723,5.63156247 Z" id="Combined-Shape" fill="#000100"></path>
                <path d="M27.7925079,0.9375 L27.7925079,29.0882814 L0,29.0882814 L0,0.9375 L27.7925079,0.9375 Z M26.1519305,2.60859378 L1.63965418,2.60859378 L1.63965418,27.4157817 L26.1519305,27.4157817 L26.1519305,2.60859378 Z M8.25991933,3.46129686 L8.9317349,5.56270304 L11.1048762,5.56645304 L9.34994817,6.86723425 L9.875,8.5135 L9.731,8.7595 L9.754,8.7765 L9.721,8.7765 L9.719,8.7795 L11.4656828,10.0754999 L10.792945,12.1890937 L12.5538672,10.8831562 L14.3134062,12.1890937 L13.6374407,10.0783124 L15.3928298,8.77706237 L13.2201497,8.77424987 L12.5474119,6.67331234 L11.8783629,8.77424987 L9.959,8.7765 L10.0249914,8.97754669 L9.754,8.7765 L9.959,8.7765 L9.875,8.5135 L12.7097176,3.68596874 L24.6954236,3.68596874 L17.9791124,14.8473747 L24.6954236,26.2197181 L12.8130029,26.2197181 L6.09761395,14.9514372 L9.719,8.7795 L9.71582682,8.77706237 L9.721,8.7765 L9.731,8.7595 L8.26637466,7.67114048 L6.50545243,8.97754669 L7.1777291,6.863953 L5.42787316,5.56645304 L7.59040923,5.56270304 L8.25991933,3.46129686 Z" id="Combined-Shape" fill="#D31521"></path>
            </g>
        </g>
    </g>
</svg>